<?xml version="1.0" encoding="UTF-8" standalone="no"?>
<svg
   xmlns:dc="http://purl.org/dc/elements/1.1/"
   xmlns:cc="http://creativecommons.org/ns#"
   xmlns:rdf="http://www.w3.org/1999/02/22-rdf-syntax-ns#"
   xmlns:svg="http://www.w3.org/2000/svg"
   xmlns="http://www.w3.org/2000/svg"
   width="345.15414mm"
   height="148.66579mm"
   viewBox="0 0 1222.987 526.76853"
   id="svg2"
   version="1.1">
  <defs
     id="defs4">
    <marker
       style="overflow:visible;"
       id="marker7459"
       refX="0.0"
       refY="0.0"
       orient="auto">
      <path
         transform="scale(0.4) rotate(180) translate(10,0)"
         style="fill-rule:evenodd;stroke:#d40000;stroke-width:1pt;stroke-opacity:1;fill:#d40000;fill-opacity:1"
         d="M 0.0,0.0 L 5.0,-5.0 L -12.5,0.0 L 5.0,5.0 L 0.0,0.0 z "
         id="path7461" />
    </marker>
    <marker
       style="overflow:visible"
       id="Scissors"
       refX="0.0"
       refY="0.0"
       orient="auto">
      <path
         style="fill:#ff0000;stroke:#d40000;stroke-opacity:1;fill-opacity:0"
         d="M 9.0898857,-3.6061018 C 8.1198849,-4.7769976 6.3697607,-4.7358294 5.0623558,-4.2327734 L -3.1500488,-1.1548705 C -5.5383421,-2.4615840 -7.8983361,-2.0874077 -7.8983361,-2.7236578 C -7.8983361,-3.2209742 -7.4416699,-3.1119800 -7.5100293,-4.4068519 C -7.5756648,-5.6501286 -8.8736064,-6.5699315 -10.100428,-6.4884954 C -11.327699,-6.4958500 -12.599867,-5.5553341 -12.610769,-4.2584343 C -12.702194,-2.9520479 -11.603560,-1.7387447 -10.304005,-1.6532027 C -8.7816644,-1.4265411 -6.0857470,-2.3487593 -4.8210600,-0.082342643 C -5.7633447,1.6559151 -7.4350844,1.6607341 -8.9465707,1.5737277 C -10.201445,1.5014928 -11.708664,1.8611256 -12.307219,3.0945882 C -12.885586,4.2766744 -12.318421,5.9591904 -10.990470,6.3210002 C -9.6502788,6.8128279 -7.8098011,6.1912892 -7.4910978,4.6502760 C -7.2454393,3.4624530 -8.0864637,2.9043186 -7.7636052,2.4731223 C -7.5199917,2.1477623 -5.9728246,2.3362771 -3.2164999,1.0982979 L 5.6763468,4.2330688 C 6.8000164,4.5467672 8.1730685,4.5362646 9.1684433,3.4313614 L -0.051640930,-0.053722219 L 9.0898857,-3.6061018 z M -9.2179159,-5.5066058 C -7.9233569,-4.7838060 -8.0290767,-2.8230356 -9.3743431,-2.4433169 C -10.590861,-2.0196559 -12.145370,-3.2022863 -11.757521,-4.5207817 C -11.530373,-5.6026336 -10.104134,-6.0014137 -9.2179159,-5.5066058 z M -9.1616516,2.5107591 C -7.8108215,3.0096239 -8.0402087,5.2951947 -9.4138723,5.6023681 C -10.324932,5.9187072 -11.627422,5.4635705 -11.719569,4.3902287 C -11.897178,3.0851737 -10.363484,1.9060805 -9.1616516,2.5107591 z "
         id="schere" />
    </marker>
    <marker
       style="overflow:visible"
       id="Torso"
       refX="0.0"
       refY="0.0"
       orient="auto">
      <g
         style="stroke:#d40000;stroke-opacity:1;fill:#000000;fill-opacity:0"
         transform="scale(0.7)"
         id="g4595">
        <path
           style="fill:#000000;fill-opacity:0;fill-rule:evenodd;stroke:#d40000;stroke-width:1.25;stroke-opacity:1"
           d="M -4.7792281,-3.2395420 C -2.4288541,-2.8736027 0.52103922,-1.3019943 0.25792722,0.38794346 C -0.0051877922,2.0778819 -2.2126741,2.6176539 -4.5630471,2.2517169 C -6.9134221,1.8857769 -8.5210350,0.75201414 -8.2579220,-0.93792336 C -7.9948090,-2.6278615 -7.1296041,-3.6054813 -4.7792281,-3.2395420 z "
           id="path4597" />
        <path
           style="fill:#000000;fill-opacity:0;fill-rule:evenodd;stroke:#d40000;stroke-width:1pt;stroke-opacity:1"
           d="M 4.4598789,0.088665736 C -2.5564571,-4.3783320 5.2248769,-3.9061806 -0.84829578,-8.7197331"
           id="path4599" />
        <path
           style="fill:#000000;fill-opacity:0;fill-rule:evenodd;stroke:#d40000;stroke-width:1pt;stroke-opacity:1"
           d="M 4.9298719,0.057520736 C -1.3872731,1.7494689 1.8027579,5.4782079 -4.9448731,7.5462725"
           id="path4601" />
        <rect
           style="fill-rule:evenodd;stroke-width:1pt;stroke:#d40000;stroke-opacity:1;fill:#000000;fill-opacity:0"
           width="2.6366582"
           height="2.7608147"
           x="-10.391706"
           y="-1.7408575"
           transform="matrix(0.527536,-0.849533,0.887668,0.460484,0,0)"
           id="rect4603" />
        <rect
           style="fill-rule:evenodd;stroke-width:1pt;stroke:#d40000;stroke-opacity:1;fill:#000000;fill-opacity:0"
           width="2.7327356"
           height="2.8614161"
           x="4.9587269"
           y="-7.9629307"
           transform="matrix(0.671205,-0.741272,0.790802,0.612072,0,0)"
           id="rect4605" />
        <path
           style="fill:#000000;fill-opacity:0;fill-rule:evenodd;stroke:#d40000;stroke-width:1pt;stroke-opacity:1"
           d="M 16.779951 -28.685045 A 0.60731727 0.60731727 0 1 0 15.565317,-28.685045 A 0.60731727 0.60731727 0 1 0 16.779951 -28.685045 z"
           transform="matrix(0,-1.109517,1.109517,0,25.96648,19.71619)"
           id="path4607" />
        <path
           style="fill:#000000;fill-opacity:0;fill-rule:evenodd;stroke:#d40000;stroke-width:1pt;stroke-opacity:1"
           d="M 16.779951 -28.685045 A 0.60731727 0.60731727 0 1 0 15.565317,-28.685045 A 0.60731727 0.60731727 0 1 0 16.779951 -28.685045 z"
           transform="matrix(0,-1.109517,1.109517,0,26.82450,16.99126)"
           id="path4609" />
      </g>
    </marker>
    <marker
       style="overflow:visible;"
       id="marker5121"
       refX="0.0"
       refY="0.0"
       orient="auto">
      <path
         transform="scale(0.4) rotate(180) translate(10,0)"
         style="fill-rule:evenodd;stroke:#d40000;stroke-width:1pt;stroke-opacity:1;fill:#000000;fill-opacity:0"
         d="M 0.0,0.0 L 5.0,-5.0 L -12.5,0.0 L 5.0,5.0 L 0.0,0.0 z "
         id="path5123" />
    </marker>
    <marker
       style="overflow:visible"
       id="SquareL"
       refX="0.0"
       refY="0.0"
       orient="auto">
      <path
         transform="scale(0.8)"
         style="fill-rule:evenodd;stroke:#d40000;stroke-width:1pt;stroke-opacity:1;fill:#d40000;fill-opacity:1"
         d="M -5.0,-5.0 L -5.0,5.0 L 5.0,5.0 L 5.0,-5.0 L -5.0,-5.0 z "
         id="path4453" />
    </marker>
    <marker
       style="overflow:visible;"
       id="marker4792"
       refX="0.0"
       refY="0.0"
       orient="auto">
      <path
         transform="scale(0.2) rotate(180) translate(6,0)"
         style="fill-rule:evenodd;stroke:#d40000;stroke-width:1pt;stroke-opacity:1;fill:#d40000;fill-opacity:1"
         d="M 0.0,0.0 L 5.0,-5.0 L -12.5,0.0 L 5.0,5.0 L 0.0,0.0 z "
         id="path4398" />
    </marker>
    <marker
       style="overflow:visible;"
       id="marker4639"
       refX="0.0"
       refY="0.0"
       orient="auto">
      <path
         transform="scale(0.4) rotate(180) translate(10,0)"
         style="fill-rule:evenodd;stroke:#d40000;stroke-width:1pt;stroke-opacity:1;fill:#ff0000;fill-opacity:0"
         d="M 0.0,0.0 L 5.0,-5.0 L -12.5,0.0 L 5.0,5.0 L 0.0,0.0 z "
         id="path4392" />
    </marker>
    <marker
       style="overflow:visible"
       id="marker6732"
       refX="0"
       refY="0"
       orient="auto">
      <path
         transform="matrix(-0.2,0,0,-0.2,-1.2,0)"
         style="fill:#800080;fill-opacity:1;fill-rule:evenodd;stroke:#800080;stroke-width:1pt;stroke-opacity:1"
         d="M 0,0 5,-5 -12.5,0 5,5 0,0 Z"
         id="path6734" />
    </marker>
    <marker
       style="overflow:visible"
       id="marker6238"
       refX="0"
       refY="0"
       orient="auto">
      <path
         transform="matrix(-0.2,0,0,-0.2,-1.2,0)"
         style="fill:#88aa00;fill-opacity:1;fill-rule:evenodd;stroke:#88aa00;stroke-width:1pt;stroke-opacity:1"
         d="M 0,0 5,-5 -12.5,0 5,5 0,0 Z"
         id="path6240" />
    </marker>
    <marker
       style="overflow:visible"
       id="marker5592"
       refX="0"
       refY="0"
       orient="auto">
      <path
         transform="matrix(-0.2,0,0,-0.2,-1.2,0)"
         style="fill:#000000;fill-opacity:1;fill-rule:evenodd;stroke:#000000;stroke-width:1pt;stroke-opacity:1"
         d="M 0,0 5,-5 -12.5,0 5,5 0,0 Z"
         id="path5594" />
    </marker>
    <marker
       orient="auto"
       refY="0"
       refX="0"
       id="marker5546"
       style="overflow:visible">
      <path
         id="path5548"
         d="M 0,0 5,-5 -12.5,0 5,5 0,0 Z"
         style="fill:#000000;fill-opacity:0;fill-rule:evenodd;stroke:#d40000;stroke-width:1pt;stroke-opacity:1"
         transform="matrix(-0.2,0,0,-0.2,-1.2,0)" />
    </marker>
    <marker
       style="overflow:visible"
       id="marker5017"
       refX="0"
       refY="0"
       orient="auto">
      <path
         transform="matrix(-0.2,0,0,-0.2,-1.2,0)"
         style="fill:#ff6600;fill-opacity:1;fill-rule:evenodd;stroke:#ff6600;stroke-width:1pt;stroke-opacity:1"
         d="M 0,0 5,-5 -12.5,0 5,5 0,0 Z"
         id="path5019" />
    </marker>
    <marker
       orient="auto"
       refY="0"
       refX="0"
       id="Arrow1Mend"
       style="overflow:visible">
      <path
         id="path4452"
         d="M 0,0 5,-5 -12.5,0 5,5 0,0 Z"
         style="fill:#ff6600;fill-opacity:1;fill-rule:evenodd;stroke:#ff6600;stroke-width:1pt;stroke-opacity:1"
         transform="matrix(-0.4,0,0,-0.4,-4,0)" />
    </marker>
    <marker
       orient="auto"
       refY="0"
       refX="0"
       id="Arrow1Send"
       style="overflow:visible">
      <path
         id="path4458"
         d="M 0,0 5,-5 -12.5,0 5,5 0,0 Z"
         style="fill:#0000ff;fill-opacity:1;fill-rule:evenodd;stroke:#0000ff;stroke-width:1pt;stroke-opacity:1"
         transform="matrix(-0.2,0,0,-0.2,-1.2,0)" />
    </marker>
    <marker
       style="overflow:visible"
       id="marker6732-9"
       refX="0"
       refY="0"
       orient="auto">
      <path
         transform="matrix(-0.2,0,0,-0.2,-1.2,0)"
         style="fill:#000000;fill-opacity:1;fill-rule:evenodd;stroke:#000000;stroke-width:1pt;stroke-opacity:1"
         d="M 0,0 5,-5 -12.5,0 5,5 0,0 Z"
         id="path6734-3" />
    </marker>
    <marker
       style="overflow:visible"
       id="marker6732-9-0"
       refX="0"
       refY="0"
       orient="auto">
      <path
         transform="matrix(-0.2,0,0,-0.2,-1.2,0)"
         style="fill:#000000;fill-opacity:1;fill-rule:evenodd;stroke:#000000;stroke-width:1pt;stroke-opacity:1"
         d="M 0,0 5,-5 -12.5,0 5,5 0,0 Z"
         id="path6734-3-4" />
    </marker>
    <marker
       style="overflow:visible"
       id="marker6732-0"
       refX="0"
       refY="0"
       orient="auto">
      <path
         transform="matrix(-0.2,0,0,-0.2,-1.2,0)"
         style="fill:#000000;fill-opacity:1;fill-rule:evenodd;stroke:#000000;stroke-width:1pt;stroke-opacity:1"
         d="M 0,0 5,-5 -12.5,0 5,5 0,0 Z"
         id="path6734-9" />
    </marker>
    <marker
       style="overflow:visible"
       id="marker6732-8"
       refX="0"
       refY="0"
       orient="auto">
      <path
         transform="matrix(-0.2,0,0,-0.2,-1.2,0)"
         style="fill:#2a7fff;fill-opacity:1;fill-rule:evenodd;stroke:#2a7fff;stroke-width:1pt;stroke-opacity:1"
         d="M 0,0 5,-5 -12.5,0 5,5 0,0 Z"
         id="path6734-4" />
    </marker>
    <marker
       style="overflow:visible"
       id="marker6732-8-8"
       refX="0"
       refY="0"
       orient="auto">
      <path
         transform="matrix(-0.2,0,0,-0.2,-1.2,0)"
         style="fill:#000000;fill-opacity:1;fill-rule:evenodd;stroke:#000000;stroke-width:1pt;stroke-opacity:1"
         d="M 0,0 5,-5 -12.5,0 5,5 0,0 Z"
         id="path6734-4-5" />
    </marker>
    <marker
       style="overflow:visible"
       id="marker6732-8-8-7"
       refX="0"
       refY="0"
       orient="auto">
      <path
         transform="matrix(-0.2,0,0,-0.2,-1.2,0)"
         style="fill:#000000;fill-opacity:1;fill-rule:evenodd;stroke:#000000;stroke-width:1pt;stroke-opacity:1"
         d="M 0,0 5,-5 -12.5,0 5,5 0,0 Z"
         id="path6734-4-5-4" />
    </marker>
    <marker
       style="overflow:visible"
       id="marker6732-5"
       refX="0"
       refY="0"
       orient="auto">
      <path
         transform="matrix(-0.2,0,0,-0.2,-1.2,0)"
         style="fill:#2a7fff;fill-opacity:1;fill-rule:evenodd;stroke:#2a7fff;stroke-width:1pt;stroke-opacity:1"
         d="M 0,0 5,-5 -12.5,0 5,5 0,0 Z"
         id="path6734-6" />
    </marker>
    <marker
       style="overflow:visible"
       id="marker6732-5-4"
       refX="0"
       refY="0"
       orient="auto">
      <path
         transform="matrix(-0.2,0,0,-0.2,-1.2,0)"
         style="fill:#ffcc00;fill-opacity:1;fill-rule:evenodd;stroke:#ffcc00;stroke-width:1pt;stroke-opacity:1"
         d="M 0,0 5,-5 -12.5,0 5,5 0,0 Z"
         id="path6734-6-8" />
    </marker>
    <marker
       style="overflow:visible"
       id="marker6732-5-4-0"
       refX="0"
       refY="0"
       orient="auto">
      <path
         transform="matrix(-0.2,0,0,-0.2,-1.2,0)"
         style="fill:#000000;fill-opacity:1;fill-rule:evenodd;stroke:#000000;stroke-width:1pt;stroke-opacity:1"
         d="M 0,0 5,-5 -12.5,0 5,5 0,0 Z"
         id="path6734-6-8-9" />
    </marker>
    <marker
       style="overflow:visible"
       id="marker6732-5-4-5"
       refX="0"
       refY="0"
       orient="auto">
      <path
         transform="matrix(-0.2,0,0,-0.2,-1.2,0)"
         style="fill:#2a7fff;fill-opacity:1;fill-rule:evenodd;stroke:#2a7fff;stroke-width:1pt;stroke-opacity:1"
         d="M 0,0 5,-5 -12.5,0 5,5 0,0 Z"
         id="path6734-6-8-5" />
    </marker>
    <marker
       style="overflow:visible"
       id="marker6732-5-4-5-0"
       refX="0"
       refY="0"
       orient="auto">
      <path
         transform="matrix(-0.2,0,0,-0.2,-1.2,0)"
         style="fill:#d5625b;fill-opacity:1;fill-rule:evenodd;stroke:#d5625b;stroke-width:1pt;stroke-opacity:1"
         d="M 0,0 5,-5 -12.5,0 5,5 0,0 Z"
         id="path6734-6-8-5-6" />
    </marker>
    <marker
       style="overflow:visible"
       id="marker6732-5-4-5-0-2"
       refX="0"
       refY="0"
       orient="auto">
      <path
         transform="matrix(-0.2,0,0,-0.2,-1.2,0)"
         style="fill:#000000;fill-opacity:1;fill-rule:evenodd;stroke:#000000;stroke-width:1pt;stroke-opacity:1"
         d="M 0,0 5,-5 -12.5,0 5,5 0,0 Z"
         id="path6734-6-8-5-6-6" />
    </marker>
    <marker
       style="overflow:visible"
       id="marker6732-5-4-5-0-1"
       refX="0"
       refY="0"
       orient="auto">
      <path
         transform="matrix(-0.2,0,0,-0.2,-1.2,0)"
         style="fill:#64ab57;fill-opacity:1;fill-rule:evenodd;stroke:#64ab57;stroke-width:1pt;stroke-opacity:1"
         d="M 0,0 5,-5 -12.5,0 5,5 0,0 Z"
         id="path6734-6-8-5-6-60" />
    </marker>
    <marker
       style="overflow:visible"
       id="marker6732-5-4-5-0-1-6"
       refX="0"
       refY="0"
       orient="auto">
      <path
         transform="matrix(-0.2,0,0,-0.2,-1.2,0)"
         style="fill:#a879bf;fill-opacity:1;fill-rule:evenodd;stroke:#a879bf;stroke-width:1pt;stroke-opacity:1"
         d="M 0,0 5,-5 -12.5,0 5,5 0,0 Z"
         id="path6734-6-8-5-6-60-6" />
    </marker>
    <marker
       style="overflow:visible"
       id="marker6732-5-4-5-0-4"
       refX="0"
       refY="0"
       orient="auto">
      <path
         transform="matrix(-0.2,0,0,-0.2,-1.2,0)"
         style="fill:#2a7fff;fill-opacity:1;fill-rule:evenodd;stroke:#2a7fff;stroke-width:1pt;stroke-opacity:1"
         d="M 0,0 5,-5 -12.5,0 5,5 0,0 Z"
         id="path6734-6-8-5-6-8" />
    </marker>
    <marker
       style="overflow:visible"
       id="marker6238-7"
       refX="0"
       refY="0"
       orient="auto">
      <path
         transform="matrix(-0.2,0,0,-0.2,-1.2,0)"
         style="fill:#88aa00;fill-opacity:1;fill-rule:evenodd;stroke:#88aa00;stroke-width:1pt;stroke-opacity:1"
         d="M 0,0 5,-5 -12.5,0 5,5 0,0 Z"
         id="path6240-0" />
    </marker>
    <marker
       style="overflow:visible"
       id="marker6238-6"
       refX="0"
       refY="0"
       orient="auto">
      <path
         transform="matrix(-0.2,0,0,-0.2,-1.2,0)"
         style="fill:#88aa00;fill-opacity:1;fill-rule:evenodd;stroke:#88aa00;stroke-width:1pt;stroke-opacity:1"
         d="M 0,0 5,-5 -12.5,0 5,5 0,0 Z"
         id="path6240-02" />
    </marker>
  </defs>
  <metadata
     id="metadata7">
    <rdf:RDF>
      <cc:Work
         rdf:about="">
        <dc:format>image/svg+xml</dc:format>
        <dc:type
           rdf:resource="http://purl.org/dc/dcmitype/StillImage" />
        <dc:title></dc:title>
      </cc:Work>
    </rdf:RDF>
  </metadata>
  <g
     id="layer1"
     transform="translate(-52.936554,-418.46713)">
    <text
       xml:space="preserve"
       style="font-style:normal;font-variant:normal;font-weight:600;font-stretch:normal;font-size:27.5px;line-height:177.99999714%;font-family:'Segoe UI';-inkscape-font-specification:'Segoe UI, Semi-Bold';text-align:end;letter-spacing:0px;word-spacing:0px;writing-mode:lr-tb;text-anchor:end;fill:#d40000;fill-opacity:1;stroke:none;stroke-width:1px;stroke-linecap:butt;stroke-linejoin:miter;stroke-opacity:1"
       x="147.61021"
       y="648.46503"
       id="text4152"><tspan
         id="tspan4154"
         x="147.61021"
         y="648.46503">@<tspan
   style="font-size:30px"
   id="tspan4368">error</tspan></tspan></text>
    <text
       xml:space="preserve"
       style="font-style:normal;font-variant:normal;font-weight:600;font-stretch:normal;font-size:27.5px;line-height:177.99999714%;font-family:'Segoe UI';-inkscape-font-specification:'Segoe UI, Semi-Bold';text-align:end;letter-spacing:0px;word-spacing:0px;writing-mode:lr-tb;text-anchor:end;fill:#000000;fill-opacity:1;stroke:none;stroke-width:1px;stroke-linecap:butt;stroke-linejoin:miter;stroke-opacity:1"
       x="134.01646"
       y="535.21936"
       id="text4156"><tspan
         id="tspan4158"
         x="134.01646"
         y="535.21936"
         style="fill:#0000ff">@<tspan
   style="font-size:30px"
   id="tspan4372">info</tspan></tspan></text>
    <text
       xml:space="preserve"
       style="font-style:normal;font-variant:normal;font-weight:600;font-stretch:normal;font-size:30px;line-height:177.99999714%;font-family:'Segoe UI';-inkscape-font-specification:'Segoe UI, Semi-Bold';text-align:end;letter-spacing:0px;word-spacing:0px;writing-mode:lr-tb;text-anchor:end;fill:#88aa00;fill-opacity:1;stroke:none;stroke-width:1px;stroke-linecap:butt;stroke-linejoin:miter;stroke-opacity:1"
       x="167.09177"
       y="713.49414"
       id="text4160"><tspan
         id="tspan4162"
         x="167.09177"
         y="713.49414">@debug</tspan></text>
    <text
       xml:space="preserve"
       style="font-style:normal;font-variant:normal;font-weight:600;font-stretch:normal;font-size:40px;line-height:91.00000262%;font-family:'Segoe UI';-inkscape-font-specification:'Segoe UI, Semi-Bold';text-align:end;letter-spacing:0px;word-spacing:0px;writing-mode:lr-tb;text-anchor:end;fill:#000000;fill-opacity:1;stroke:none;stroke-width:1px;stroke-linecap:butt;stroke-linejoin:miter;stroke-opacity:1"
       x="378.57144"
       y="606.93365"
       id="text4164"><tspan
         x="378.57144"
         y="606.93365"
         style="font-weight:bold;line-height:91.00000262%;fill:#800080"
         id="tspan4208">Demux</tspan><tspan
         x="378.57144"
         y="643.33368"
         style="font-weight:bold;line-height:91.00000262%;fill:#800080"
         id="tspan4212">Logger</tspan></text>
    <text
       xml:space="preserve"
       style="font-style:normal;font-variant:normal;font-weight:600;font-stretch:normal;font-size:40px;line-height:93.99999976%;font-family:'Segoe UI';-inkscape-font-specification:'Segoe UI, Semi-Bold';text-align:end;letter-spacing:0px;word-spacing:0px;writing-mode:lr-tb;text-anchor:end;fill:#000000;fill-opacity:1;stroke:none;stroke-width:1px;stroke-linecap:butt;stroke-linejoin:miter;stroke-opacity:1"
       x="575.69836"
       y="724.89368"
       id="text4164-2"><tspan
         id="tspan4166-8"
         x="575.69836"
         y="724.89368"
         style="font-weight:bold;font-size:35px;line-height:93.99999976%;fill:#0000ff">Filtered</tspan><tspan
         x="575.69836"
         y="757.7937"
         style="font-weight:bold;font-size:35px;line-height:93.99999976%;fill:#0000ff"
         id="tspan4214">Logger</tspan></text>
    <text
       xml:space="preserve"
       style="font-style:normal;font-variant:normal;font-weight:600;font-stretch:normal;font-size:40px;line-height:74.00000095%;font-family:'Segoe UI';-inkscape-font-specification:'Segoe UI, Semi-Bold';text-align:start;letter-spacing:0px;word-spacing:0px;writing-mode:lr-tb;text-anchor:start;fill:#ffcc00;fill-opacity:1;stroke:none;stroke-width:1px;stroke-linecap:butt;stroke-linejoin:miter;stroke-opacity:1"
       x="1128.2478"
       y="448.07651"
       id="text4216"><tspan
         id="tspan4218"
         x="1128.2478"
         y="448.07651"
         style="font-weight:bold;line-height:74.00000095%;text-align:start;text-anchor:start;fill:#ffcc00">Console</tspan><tspan
         x="1128.2478"
         y="477.67651"
         style="font-weight:bold;line-height:74.00000095%;text-align:start;text-anchor:start;fill:#ffcc00"
         id="tspan4220">Logger </tspan></text>
    <text
       xml:space="preserve"
       style="font-style:normal;font-variant:normal;font-weight:600;font-stretch:normal;font-size:40px;line-height:91.00000262%;font-family:'Segoe UI';-inkscape-font-specification:'Segoe UI, Semi-Bold';text-align:end;letter-spacing:0px;word-spacing:0px;writing-mode:lr-tb;text-anchor:end;fill:#000000;fill-opacity:1;stroke:none;stroke-width:1px;stroke-linecap:butt;stroke-linejoin:miter;stroke-opacity:1"
       x="754.7005"
       y="726.24457"
       id="text4164-3"><tspan
         x="754.7005"
         y="726.24457"
         style="font-weight:bold;line-height:91.00000262%;fill:#800080"
         id="tspan4208-7">Demux</tspan><tspan
         x="754.7005"
         y="762.64459"
         style="font-weight:bold;line-height:91.00000262%;fill:#800080"
         id="tspan4212-4">Logger</tspan></text>
    <text
       xml:space="preserve"
       style="font-style:normal;font-variant:normal;font-weight:600;font-stretch:normal;font-size:40px;line-height:93.99999976%;font-family:'Segoe UI';-inkscape-font-specification:'Segoe UI, Semi-Bold';text-align:end;letter-spacing:0px;word-spacing:0px;writing-mode:lr-tb;text-anchor:end;fill:#000000;fill-opacity:1;stroke:none;stroke-width:1px;stroke-linecap:butt;stroke-linejoin:miter;stroke-opacity:1"
       x="1000.8068"
       y="891.88794"
       id="text4164-2-9"><tspan
         id="tspan4166-8-8"
         x="1000.8068"
         y="891.88794"
         style="font-weight:bold;font-size:35px;line-height:93.99999976%;fill:#0000ff">Filtered</tspan><tspan
         x="1000.8068"
         y="924.78796"
         style="font-weight:bold;font-size:35px;line-height:93.99999976%;fill:#0000ff"
         id="tspan4214-3">Logger</tspan></text>
    <text
       xml:space="preserve"
       style="font-style:normal;font-variant:normal;font-weight:600;font-stretch:normal;font-size:40px;line-height:93.99999976%;font-family:'Segoe UI';-inkscape-font-specification:'Segoe UI, Semi-Bold';text-align:end;letter-spacing:0px;word-spacing:0px;writing-mode:lr-tb;text-anchor:end;fill:#000000;fill-opacity:1;stroke:none;stroke-width:1px;stroke-linecap:butt;stroke-linejoin:miter;stroke-opacity:1"
       x="1000.8068"
       y="774.75623"
       id="text4164-2-9-1"><tspan
         id="tspan4166-8-8-8"
         x="1000.8068"
         y="774.75623"
         style="font-weight:bold;font-size:35px;line-height:93.99999976%;fill:#0000ff">Filtered</tspan><tspan
         x="1000.8068"
         y="807.65625"
         style="font-weight:bold;font-size:35px;line-height:93.99999976%;fill:#0000ff"
         id="tspan4214-3-3">Logger</tspan></text>
    <text
       xml:space="preserve"
       style="font-style:normal;font-variant:normal;font-weight:600;font-stretch:normal;font-size:40px;line-height:93.99999976%;font-family:'Segoe UI';-inkscape-font-specification:'Segoe UI, Semi-Bold';text-align:end;letter-spacing:0px;word-spacing:0px;writing-mode:lr-tb;text-anchor:end;fill:#000000;fill-opacity:1;stroke:none;stroke-width:1px;stroke-linecap:butt;stroke-linejoin:miter;stroke-opacity:1"
       x="1000.8068"
       y="651.89905"
       id="text4164-2-9-1-8"><tspan
         id="tspan4166-8-8-8-5"
         x="1000.8068"
         y="651.89905"
         style="font-weight:bold;font-size:35px;line-height:93.99999976%;fill:#0000ff">Filtered</tspan><tspan
         x="1000.8068"
         y="684.79907"
         style="font-weight:bold;font-size:35px;line-height:93.99999976%;fill:#0000ff"
         id="tspan4214-3-3-3">Logger</tspan></text>
    <text
       xml:space="preserve"
       style="font-style:normal;font-variant:normal;font-weight:600;font-stretch:normal;font-size:40px;line-height:74.00000095%;font-family:'Segoe UI';-inkscape-font-specification:'Segoe UI, Semi-Bold';text-align:start;letter-spacing:0px;word-spacing:0px;writing-mode:lr-tb;text-anchor:start;fill:#64ab57;fill-opacity:1;stroke:none;stroke-width:1px;stroke-linecap:butt;stroke-linejoin:miter;stroke-opacity:1"
       x="1125.0447"
       y="623.38397"
       id="text4216-2"><tspan
         id="tspan4218-0"
         x="1125.0447"
         y="623.38397"
         style="font-weight:bold;line-height:74.00000095%;text-align:start;text-anchor:start;fill:#64ab57;fill-opacity:1">File</tspan><tspan
         x="1125.0447"
         y="652.98395"
         style="font-weight:bold;line-height:74.00000095%;text-align:start;text-anchor:start;fill:#64ab57;fill-opacity:1"
         id="tspan4220-9">Logger </tspan></text>
    <text
       xml:space="preserve"
       style="font-style:normal;font-variant:normal;font-weight:600;font-stretch:normal;font-size:40px;line-height:74.00000095%;font-family:'Segoe UI';-inkscape-font-specification:'Segoe UI, Semi-Bold';text-align:start;letter-spacing:0px;word-spacing:0px;writing-mode:lr-tb;text-anchor:start;fill:#d5625b;fill-opacity:1;stroke:none;stroke-width:1px;stroke-linecap:butt;stroke-linejoin:miter;stroke-opacity:1"
       x="1125.0447"
       y="773.38397"
       id="text4216-2-3"><tspan
         id="tspan4218-0-8"
         x="1125.0447"
         y="773.38397"
         style="font-weight:bold;line-height:74.00000095%;text-align:start;text-anchor:start;fill:#d5625b;fill-opacity:1">File</tspan><tspan
         x="1125.0447"
         y="802.98395"
         style="font-weight:bold;line-height:74.00000095%;text-align:start;text-anchor:start;fill:#d5625b;fill-opacity:1"
         id="tspan4220-9-1">Logger </tspan></text>
    <text
       xml:space="preserve"
       style="font-style:normal;font-variant:normal;font-weight:600;font-stretch:normal;font-size:40px;line-height:74.00000095%;font-family:'Segoe UI';-inkscape-font-specification:'Segoe UI, Semi-Bold';text-align:start;letter-spacing:0px;word-spacing:0px;writing-mode:lr-tb;text-anchor:start;fill:#a879bf;fill-opacity:1;stroke:none;stroke-width:1px;stroke-linecap:butt;stroke-linejoin:miter;stroke-opacity:1"
       x="1125.0447"
       y="906.24115"
       id="text4216-2-3-5"><tspan
         id="tspan4218-0-8-4"
         x="1125.0447"
         y="906.24115"
         style="font-weight:bold;line-height:74.00000095%;text-align:start;text-anchor:start;fill:#a879bf;fill-opacity:1">File</tspan><tspan
         x="1125.0447"
         y="935.84113"
         style="font-weight:bold;line-height:74.00000095%;text-align:start;text-anchor:start;fill:#a879bf;fill-opacity:1"
         id="tspan4220-9-1-0">Logger </tspan></text>
    <path
       style="fill:none;fill-rule:evenodd;stroke:#0000ff;stroke-width:3;stroke-linecap:butt;stroke-linejoin:miter;stroke-miterlimit:4;stroke-dasharray:none;stroke-opacity:1;marker-end:url(#Arrow1Send)"
       d="m 140.27665,526.72769 c 15.53331,-0.0918 32.62988,-1.667 41.74876,10.5428 6.48927,11.55895 5.30573,26.41887 14.65025,36.57503 8.14284,11.05713 21.50821,19.8282 35.7544,17.60719 1.79533,-0.13077 3.59403,-0.25224 5.39533,-0.22998"
       id="path4433" />
    <path
       style="fill:none;fill-opacity:1;fill-rule:evenodd;stroke:#ff6600;stroke-width:3.29999995;stroke-linecap:butt;stroke-linejoin:miter;stroke-miterlimit:4.5999999;stroke-dasharray:none;stroke-opacity:1;marker-end:url(#marker5017)"
       d="m 148.33852,588.80416 c 3.667,3.75775 22.66099,10.53691 28.25259,11.91006 17.05501,3.38405 16.76413,3.29368 34.10847,2.88688 7.42955,-0.0952 14.85821,-0.2743 22.28867,-0.28602"
       id="path4893" />
    <path
       style="fill:none;fill-opacity:1;fill-rule:evenodd;stroke:#d40000;stroke-width:3;stroke-linecap:butt;stroke-linejoin:miter;stroke-miterlimit:4;stroke-dasharray:none;stroke-opacity:1;marker-end:url(#marker4792)"
       d="m 148.49178,641.07971 c 13.44935,0.40513 25.74436,-1.24031 39.13428,-7.31441 19.95193,-9.90599 33.70039,-14.36833 51.48524,-13.9663"
       id="path5538RedErrorArrow" />
    <path
       style="fill:none;fill-opacity:1;fill-rule:evenodd;stroke:#88aa00;stroke-width:3;stroke-linecap:butt;stroke-linejoin:miter;stroke-miterlimit:4;stroke-dasharray:none;stroke-opacity:1;marker-end:url(#marker6238)"
       d="m 167.68703,706.5076 c 23.14413,-2.37986 26.69295,-14.37642 32.43039,-34.53341 4.43603,-21.25088 24.53798,-24.47386 40.93271,-30.76781"
       id="path6230" />
    <path
       style="fill:none;fill-rule:evenodd;stroke:#800080;stroke-width:10;stroke-linecap:butt;stroke-linejoin:miter;stroke-miterlimit:4;stroke-dasharray:none;stroke-opacity:1;marker-end:url(#marker6732)"
       d="m 386.97015,617.82693 c 10.60366,48.89251 2.10873,85.01293 56.45684,111.58779"
       id="path6724" />
    <path
       style="fill:none;fill-rule:evenodd;stroke:#2a7fff;stroke-width:10;stroke-linecap:butt;stroke-linejoin:miter;stroke-miterlimit:4;stroke-dasharray:none;stroke-opacity:1;marker-end:url(#marker6732-8)"
       d="m 755.41513,762.98093 c 9.66306,2.7557 13.78763,13.12448 16.12146,21.95531 4.53265,17.08234 2.29096,51.39369 8.94339,68.14295 4.45317,8.00398 12.46861,21.86887 19.28349,26.63075 10.60098,7.00353 45.83591,12.77578 58.84367,17.09811"
       id="path6724-9" />
    <path
       style="fill:none;fill-opacity:0;fill-rule:evenodd;stroke:#2a7fff;stroke-width:10;stroke-linecap:butt;stroke-linejoin:miter;stroke-miterlimit:4;stroke-dasharray:none;stroke-opacity:1;marker-end:url(#marker6732-5)"
       d="m 760.25225,727.42831 c 9.66306,-2.7557 23.46189,-17.15542 25.79572,-25.98625 8.03852,-16.29255 8.70109,-37.86891 22.58356,-48.0148 10.60098,-7.00353 35.35546,-3.90771 55.61891,0.63803"
       id="path6724-93" />
    <path
       style="fill:none;fill-opacity:1;fill-rule:evenodd;stroke:#ffcc00;stroke-width:10;stroke-linecap:butt;stroke-linejoin:miter;stroke-miterlimit:4;stroke-dasharray:none;stroke-opacity:1;marker-end:url(#marker6732-5-4)"
       d="m 393.20184,594.98639 c 9.65788,-2.66758 181.80911,-93.7844 296.67487,-113.05455 197.7647,-19.17751 214.09053,-22.94923 414.38289,-23.99732"
       id="path6724-93-9" />
    <path
       style="fill:none;fill-rule:evenodd;stroke:#2a7fff;stroke-width:10;stroke-linecap:butt;stroke-linejoin:miter;stroke-miterlimit:4;stroke-dasharray:none;stroke-opacity:1;marker-end:url(#marker6732-5-4-5)"
       d="m 765.16418,745.76786 c 41.57905,39.61842 43.85497,28.42786 97.54873,33.05379"
       id="path6724-93-9-3" />
    <path
       style="fill:none;fill-opacity:1;fill-rule:evenodd;stroke:#d5625b;stroke-width:10;stroke-linecap:butt;stroke-linejoin:miter;stroke-miterlimit:4;stroke-dasharray:none;stroke-opacity:1;marker-end:url(#marker6732-5-4-5-0)"
       d="m 1009.1818,773.74698 c 52.8656,7.3709 46.2735,-2.20728 99.9673,2.41865"
       id="path6724-93-9-3-6" />
    <path
       style="fill:none;fill-opacity:0;fill-rule:evenodd;stroke:#64ab57;stroke-width:10;stroke-linecap:butt;stroke-linejoin:miter;stroke-miterlimit:4;stroke-dasharray:none;stroke-opacity:1;marker-end:url(#marker6732-5-4-5-0-1)"
       d="m 1004.1746,653.13757 c 52.8655,7.3709 49.4982,-18.33104 101.5796,-24.18555"
       id="path6724-93-9-3-6-0" />
    <path
       style="fill:none;fill-opacity:0.97647059;fill-rule:evenodd;stroke:#a879bf;stroke-width:10;stroke-linecap:butt;stroke-linejoin:miter;stroke-miterlimit:4;stroke-dasharray:none;stroke-opacity:1;marker-end:url(#marker6732-5-4-5-0-1-6)"
       d="m 1002.5622,890.75766 c 52.8655,-7.3709 44.661,13.49391 101.5797,24.18555"
       id="path6724-93-9-3-6-0-2" />
    <path
       style="fill:none;fill-rule:evenodd;stroke:#2a7fff;stroke-width:10;stroke-linecap:butt;stroke-linejoin:miter;stroke-miterlimit:4;stroke-dasharray:none;stroke-opacity:1;marker-end:url(#marker6732-5-4-5-0-4)"
       d="m 576.08878,728.11305 c 52.86564,7.3709 -19.02769,-3.01346 34.66611,1.61247"
       id="path6724-93-9-3-6-1" />
    <text
       xml:space="preserve"
       style="font-style:normal;font-variant:normal;font-weight:600;font-stretch:normal;font-size:27.5px;line-height:177.99999714%;font-family:'Segoe UI';-inkscape-font-specification:'Segoe UI, Semi-Bold';text-align:end;letter-spacing:0px;word-spacing:0px;writing-mode:lr-tb;text-anchor:end;fill:#ff6600;fill-opacity:1;stroke:none;stroke-width:1px;stroke-linecap:butt;stroke-linejoin:miter;stroke-opacity:1"
       x="147.50235"
       y="595.75879"
       id="text4156-9"><tspan
         id="tspan4158-9"
         x="147.50235"
         y="595.75879"
         style="fill:#ff6600;fill-opacity:1">@warn</tspan></text>
  </g>
</svg>
